<mxfile host="Electron" modified="2023-04-19T19:46:01.786Z" agent="Mozilla/5.0 (Macintosh; Intel Mac OS X 10_15_7) AppleWebKit/537.36 (KHTML, like Gecko) draw.io/21.1.2 Chrome/106.0.5249.199 Electron/21.4.3 Safari/537.36" etag="kxBjrSkjawyd5go7cWTY" version="21.1.2" type="device">
  <diagram name="Page-1" id="HyqRfFvvH0HVffcgjbjg">
    <mxGraphModel dx="1688" dy="694" grid="1" gridSize="10" guides="1" tooltips="1" connect="1" arrows="1" fold="1" page="1" pageScale="1" pageWidth="850" pageHeight="1400" math="0" shadow="0">
      <root>
        <mxCell id="0" />
        <mxCell id="1" parent="0" />
        <mxCell id="3WIzue396VuWa2IyJ7cl-15" value="" style="rounded=0;whiteSpace=wrap;html=1;dashed=1;" vertex="1" parent="1">
          <mxGeometry x="385" y="320" width="360" height="260" as="geometry" />
        </mxCell>
        <mxCell id="3WIzue396VuWa2IyJ7cl-18" value="" style="rounded=0;whiteSpace=wrap;html=1;" vertex="1" parent="1">
          <mxGeometry x="635" y="200" width="20" height="360" as="geometry" />
        </mxCell>
        <mxCell id="3WIzue396VuWa2IyJ7cl-1" value="User" style="rounded=0;whiteSpace=wrap;html=1;" vertex="1" parent="1">
          <mxGeometry x="105" y="80" width="120" height="60" as="geometry" />
        </mxCell>
        <mxCell id="3WIzue396VuWa2IyJ7cl-2" value="Hub" style="rounded=0;whiteSpace=wrap;html=1;" vertex="1" parent="1">
          <mxGeometry x="345" y="80" width="120" height="60" as="geometry" />
        </mxCell>
        <mxCell id="3WIzue396VuWa2IyJ7cl-3" value="Curtain" style="rounded=0;whiteSpace=wrap;html=1;" vertex="1" parent="1">
          <mxGeometry x="585" y="80" width="120" height="60" as="geometry" />
        </mxCell>
        <mxCell id="3WIzue396VuWa2IyJ7cl-4" value="" style="endArrow=none;html=1;rounded=0;" edge="1" parent="1">
          <mxGeometry width="50" height="50" relative="1" as="geometry">
            <mxPoint x="165" y="600" as="sourcePoint" />
            <mxPoint x="165" y="140" as="targetPoint" />
          </mxGeometry>
        </mxCell>
        <mxCell id="3WIzue396VuWa2IyJ7cl-5" value="" style="endArrow=none;html=1;rounded=0;" edge="1" parent="1">
          <mxGeometry width="50" height="50" relative="1" as="geometry">
            <mxPoint x="405" y="600" as="sourcePoint" />
            <mxPoint x="405" y="140" as="targetPoint" />
          </mxGeometry>
        </mxCell>
        <mxCell id="3WIzue396VuWa2IyJ7cl-6" value="" style="endArrow=none;html=1;rounded=0;" edge="1" parent="1">
          <mxGeometry width="50" height="50" relative="1" as="geometry">
            <mxPoint x="645" y="600" as="sourcePoint" />
            <mxPoint x="645" y="140" as="targetPoint" />
          </mxGeometry>
        </mxCell>
        <mxCell id="3WIzue396VuWa2IyJ7cl-7" value="" style="endArrow=classic;html=1;rounded=0;" edge="1" parent="1">
          <mxGeometry width="50" height="50" relative="1" as="geometry">
            <mxPoint x="165" y="180" as="sourcePoint" />
            <mxPoint x="405" y="180" as="targetPoint" />
          </mxGeometry>
        </mxCell>
        <mxCell id="3WIzue396VuWa2IyJ7cl-8" value="User creates an event" style="text;html=1;align=center;verticalAlign=middle;resizable=0;points=[];autosize=1;strokeColor=none;fillColor=none;" vertex="1" parent="1">
          <mxGeometry x="215" y="150" width="140" height="30" as="geometry" />
        </mxCell>
        <mxCell id="3WIzue396VuWa2IyJ7cl-9" value="" style="endArrow=classic;html=1;rounded=0;" edge="1" parent="1">
          <mxGeometry width="50" height="50" relative="1" as="geometry">
            <mxPoint x="405" y="220" as="sourcePoint" />
            <mxPoint x="645" y="220" as="targetPoint" />
          </mxGeometry>
        </mxCell>
        <mxCell id="3WIzue396VuWa2IyJ7cl-10" value="Hub publishes event to move topic" style="text;html=1;align=center;verticalAlign=middle;resizable=0;points=[];autosize=1;strokeColor=none;fillColor=none;" vertex="1" parent="1">
          <mxGeometry x="420" y="190" width="210" height="30" as="geometry" />
        </mxCell>
        <mxCell id="3WIzue396VuWa2IyJ7cl-11" value="TOPICS:&lt;br&gt;SmartCurtain/all/move&lt;br&gt;SmartCurtain/{Homes.id}/move&lt;br&gt;SmartCurtain/-/{Rooms.id}/move&lt;br&gt;SmartCurtain/-/-/{Curtains.id}/move" style="text;html=1;align=center;verticalAlign=middle;resizable=0;points=[];autosize=1;strokeColor=none;fillColor=none;" vertex="1" parent="1">
          <mxGeometry x="420" y="210" width="210" height="90" as="geometry" />
        </mxCell>
        <mxCell id="3WIzue396VuWa2IyJ7cl-12" value="" style="endArrow=classic;html=1;rounded=0;" edge="1" parent="1">
          <mxGeometry width="50" height="50" relative="1" as="geometry">
            <mxPoint x="645" y="520" as="sourcePoint" />
            <mxPoint x="405" y="520" as="targetPoint" />
          </mxGeometry>
        </mxCell>
        <mxCell id="3WIzue396VuWa2IyJ7cl-13" value="Curtain publishes state to update topic" style="text;html=1;align=center;verticalAlign=middle;resizable=0;points=[];autosize=1;strokeColor=none;fillColor=none;" vertex="1" parent="1">
          <mxGeometry x="410" y="490" width="230" height="30" as="geometry" />
        </mxCell>
        <mxCell id="3WIzue396VuWa2IyJ7cl-14" value="TOPICS:&lt;br&gt;SmartCurtain/hub/update" style="text;html=1;align=center;verticalAlign=middle;resizable=0;points=[];autosize=1;strokeColor=none;fillColor=none;" vertex="1" parent="1">
          <mxGeometry x="445" y="520" width="160" height="40" as="geometry" />
        </mxCell>
        <mxCell id="3WIzue396VuWa2IyJ7cl-16" value="" style="endArrow=classic;html=1;rounded=0;" edge="1" parent="1">
          <mxGeometry width="50" height="50" relative="1" as="geometry">
            <mxPoint x="645" y="359" as="sourcePoint" />
            <mxPoint x="405" y="359" as="targetPoint" />
          </mxGeometry>
        </mxCell>
        <mxCell id="3WIzue396VuWa2IyJ7cl-17" value="TOPICS:&lt;br&gt;SmartCurtain/hub/error" style="text;html=1;align=center;verticalAlign=middle;resizable=0;points=[];autosize=1;strokeColor=none;fillColor=none;" vertex="1" parent="1">
          <mxGeometry x="450" y="359" width="150" height="40" as="geometry" />
        </mxCell>
        <mxCell id="3WIzue396VuWa2IyJ7cl-20" value="Curtain publishes error to error topic" style="text;html=1;align=center;verticalAlign=middle;resizable=0;points=[];autosize=1;strokeColor=none;fillColor=none;" vertex="1" parent="1">
          <mxGeometry x="410" y="329" width="220" height="30" as="geometry" />
        </mxCell>
        <mxCell id="3WIzue396VuWa2IyJ7cl-24" value="" style="curved=1;endArrow=classic;html=1;rounded=0;" edge="1" parent="1">
          <mxGeometry width="50" height="50" relative="1" as="geometry">
            <mxPoint x="645" y="440" as="sourcePoint" />
            <mxPoint x="645" y="480" as="targetPoint" />
            <Array as="points">
              <mxPoint x="695" y="440" />
              <mxPoint x="695" y="480" />
            </Array>
          </mxGeometry>
        </mxCell>
        <mxCell id="3WIzue396VuWa2IyJ7cl-25" value="Curtain moves&lt;br&gt;to position" style="edgeLabel;html=1;align=center;verticalAlign=middle;resizable=0;points=[];" vertex="1" connectable="0" parent="3WIzue396VuWa2IyJ7cl-24">
          <mxGeometry x="0.0009" relative="1" as="geometry">
            <mxPoint as="offset" />
          </mxGeometry>
        </mxCell>
        <mxCell id="3WIzue396VuWa2IyJ7cl-26" value="" style="endArrow=none;dashed=1;html=1;dashPattern=1 3;strokeWidth=2;rounded=0;exitX=-0.001;exitY=0.384;exitDx=0;exitDy=0;exitPerimeter=0;entryX=1;entryY=0.385;entryDx=0;entryDy=0;entryPerimeter=0;" edge="1" parent="1" source="3WIzue396VuWa2IyJ7cl-15" target="3WIzue396VuWa2IyJ7cl-15">
          <mxGeometry width="50" height="50" relative="1" as="geometry">
            <mxPoint x="205" y="410" as="sourcePoint" />
            <mxPoint x="645" y="360" as="targetPoint" />
          </mxGeometry>
        </mxCell>
      </root>
    </mxGraphModel>
  </diagram>
</mxfile>
